name rise49.8558peak67.6521fall70.3087.mot
datacolumns 19
datarows 35
range 22.79324900000000 22.84991600000000
endheader
time	ground_force1_vx	ground_force1_vy	ground_force1_vz	ground_force1_px	ground_force1_py	ground_force1_pz	ground_force2_vx	ground_force2_vy	ground_force2_vz	ground_force2_px	ground_force2_py	ground_force2_pz	ground_torque1_x	ground_torque1_y	ground_torque1_z	ground_torque2_x	ground_torque2_y	ground_torque2_z	
22.79324900000000	-43.63699200000000	817.00063599999999	62.09461000000000	0.16023500000000	0.00000000000000	0.11339000000000	-1.31460600000000	3.63541500000000	0.97031600000000	0.00000000000000	0.00000000000000	0.00000000000000	0.00000000000000	28.61031200000000	0.00000000000000	0.00000000000000	0.31359900000000	0.00000000000000	
22.79491400000000	-43.97779900000000	815.37576300000001	62.05965800000000	0.15918400000000	0.00000000000000	0.11336300000000	-2.13424700000000	7.13381300000000	1.65032500000000	0.00000000000000	0.00000000000000	0.00000000000000	0.00000000000000	28.50577300000000	0.00000000000000	0.00000000000000	0.54163800000000	0.00000000000000	
22.79658200000000	-44.32319900000000	813.63819500000000	62.00041500000000	0.15814300000000	0.00000000000000	0.11333200000000	-3.06718600000000	11.37792200000000	2.43996100000000	0.00000000000000	0.00000000000000	0.00000000000000	0.00000000000000	28.39699800000000	0.00000000000000	0.00000000000000	0.80805100000000	0.00000000000000	
22.79824400000000	-44.67361900000000	811.78690400000005	61.91638700000000	0.15711400000000	0.00000000000000	0.11329700000000	-4.08669200000000	16.32732800000000	3.32133400000000	0.00000000000000	0.00000000000000	0.00000000000000	0.00000000000000	28.28417600000000	0.00000000000000	0.00000000000000	1.10730400000000	0.00000000000000	
22.79991500000000	-45.02947000000000	809.82087600000000	61.80711800000000	0.15609600000000	0.00000000000000	0.11325700000000	-5.15884000000000	21.90918800000000	4.27043500000000	0.00000000000000	0.00000000000000	0.00000000000000	0.00000000000000	28.16749800000000	0.00000000000000	0.00000000000000	1.43180300000000	0.00000000000000	
22.80158100000000	-45.39114800000000	807.73910400000000	61.67219400000000	0.15509200000000	0.00000000000000	0.11321200000000	-6.24470900000000	28.02376200000000	5.25871200000000	0.32607400000000	0.00000000000000	-0.07647100000000	0.00000000000000	28.04715800000000	0.00000000000000	0.00000000000000	3.00959500000000	0.00000000000000	
22.80325100000000	-45.75902600000000	805.54059099999995	61.51123900000000	0.15410300000000	0.00000000000000	0.11316300000000	-7.30318800000000	34.55282000000000	6.25519100000000	0.33325600000000	0.00000000000000	-0.07701700000000	0.00000000000000	27.92335200000000	0.00000000000000	0.00000000000000	3.64122000000000	0.00000000000000	
22.80491200000000	-46.13345800000000	803.22434599999997	61.32392100000000	0.15313000000000	0.00000000000000	0.11310900000000	-8.29404400000000	41.36983500000000	7.22883500000000	0.33989100000000	0.00000000000000	-0.07749500000000	0.00000000000000	27.79627300000000	0.00000000000000	0.00000000000000	4.27608300000000	0.00000000000000	
22.80658200000000	-46.51477100000000	800.78938400000004	61.10994700000000	0.15217400000000	0.00000000000000	0.11304900000000	-9.18081700000000	48.35047700000000	8.15084400000000	0.34606500000000	0.00000000000000	-0.07791800000000	0.00000000000000	27.66611600000000	0.00000000000000	0.00000000000000	4.89645900000000	0.00000000000000	
22.80824700000000	-46.90326500000000	798.23472700000002	60.86907100000000	0.15123500000000	0.00000000000000	0.11298500000000	-9.93319600000000	55.38203800000000	8.99657800000000	0.35184300000000	0.00000000000000	-0.07829400000000	0.00000000000000	27.53306900000000	0.00000000000000	0.00000000000000	5.48648300000000	0.00000000000000	
22.80991400000000	-47.29920700000000	795.55939899999998	60.60108700000000	0.15031600000000	0.00000000000000	0.11291500000000	-10.52862300000000	62.37075800000000	9.74693100000000	0.35727700000000	0.00000000000000	-0.07863300000000	0.00000000000000	27.39732100000000	0.00000000000000	0.00000000000000	6.03311700000000	0.00000000000000	
22.81157900000000	-47.70283400000000	792.76242900000000	60.30583600000000	0.14941700000000	0.00000000000000	0.11284000000000	-10.95305000000000	69.24655400000000	10.38905400000000	0.36241000000000	0.00000000000000	-0.07893800000000	0.00000000000000	27.25905000000000	0.00000000000000	0.00000000000000	6.52675500000000	0.00000000000000	
22.81325100000000	-48.11434100000000	789.84285100000000	59.98320100000000	0.14853900000000	0.00000000000000	0.11275900000000	-11.20089600000000	75.96506100000001	10.91645900000000	0.36727700000000	0.00000000000000	-0.07921700000000	0.00000000000000	27.11843100000000	0.00000000000000	0.00000000000000	6.96146100000000	0.00000000000000	
22.81491700000000	-48.53388700000000	786.79970200000002	59.63311200000000	0.14768300000000	0.00000000000000	0.11267200000000	-11.27431600000000	82.50722300000000	11.32859300000000	0.37190500000000	0.00000000000000	-0.07947100000000	0.00000000000000	26.97562900000000	0.00000000000000	0.00000000000000	7.33487000000000	0.00000000000000	
22.81658400000000	-48.96158700000000	783.63202500000000	59.25554200000000	0.14685000000000	0.00000000000000	0.11258000000000	-11.18196400000000	88.87686300000000	11.62998700000000	0.37631600000000	0.00000000000000	-0.07970600000000	0.00000000000000	26.83080200000000	0.00000000000000	0.00000000000000	7.64780900000000	0.00000000000000	
22.81825000000000	-49.39750800000000	780.33886800000005	58.85051000000000	0.14603900000000	0.00000000000000	0.11248200000000	-10.93744300000000	95.09679700000000	11.82913900000000	0.38053100000000	0.00000000000000	-0.07992400000000	0.00000000000000	26.68409500000000	0.00000000000000	0.00000000000000	7.90371600000000	0.00000000000000	
22.81991200000000	-49.84167100000000	776.91928600000006	58.41808200000000	0.14525300000000	0.00000000000000	0.11237800000000	-10.55760700000000	101.20405200000000	11.93727000000000	0.38456500000000	0.00000000000000	-0.08012700000000	0.00000000000000	26.53564400000000	0.00000000000000	0.00000000000000	8.10794900000000	0.00000000000000	
22.82157600000000	-50.29404200000000	773.37234200000000	57.95836600000000	0.14449100000000	0.00000000000000	0.11226900000000	-10.06090600000000	107.24475700000001	11.96706400000000	0.38843100000000	0.00000000000000	-0.08031700000000	0.00000000000000	26.38557100000000	0.00000000000000	0.00000000000000	8.26704200000000	0.00000000000000	
22.82324600000000	-50.75453300000000	769.69710799999996	57.47151900000000	0.14375400000000	0.00000000000000	0.11215300000000	-9.46588200000000	113.26916100000000	11.93151500000000	0.39214100000000	0.00000000000000	-0.08049700000000	0.00000000000000	26.23398700000000	0.00000000000000	0.00000000000000	8.38800200000000	0.00000000000000	
22.82491400000000	-51.22299900000000	765.89267099999995	56.95774000000000	0.14304200000000	0.00000000000000	0.11203100000000	-8.78991400000000	119.32717200000000	11.84293900000000	0.39570400000000	0.00000000000000	-0.08066700000000	0.00000000000000	26.08098600000000	0.00000000000000	0.00000000000000	8.47767700000000	0.00000000000000	
22.82657800000000	-51.69923300000000	761.95812599999999	56.41727700000000	0.14235500000000	0.00000000000000	0.11190300000000	-8.04827500000000	125.46466100000001	11.71221800000000	0.39912800000000	0.00000000000000	-0.08083000000000	0.00000000000000	25.92665100000000	0.00000000000000	0.00000000000000	8.54224700000000	0.00000000000000	
22.82825000000000	-52.18296400000000	757.89258800000005	55.85041900000000	0.14169400000000	0.00000000000000	0.11177000000000	-7.25351200000000	131.72069400000001	11.54827000000000	0.40242100000000	0.00000000000000	-0.08098600000000	0.00000000000000	25.77104700000000	0.00000000000000	0.00000000000000	8.58684700000000	0.00000000000000	
22.82991800000000	-52.67385500000000	753.69518700000003	55.25750400000000	0.14105900000000	0.00000000000000	0.11163000000000	-6.41514400000000	138.12573499999999	11.35777600000000	0.40558800000000	0.00000000000000	-0.08113600000000	0.00000000000000	25.61422500000000	0.00000000000000	0.00000000000000	8.61534500000000	0.00000000000000	
22.83158500000000	-53.17150300000000	749.36507700000004	54.63891000000000	0.14044900000000	0.00000000000000	0.11148400000000	-5.53963700000000	144.70078000000001	11.14510900000000	0.40863500000000	0.00000000000000	-0.08128100000000	0.00000000000000	25.45621900000000	0.00000000000000	0.00000000000000	8.63024400000000	0.00000000000000	
22.83325100000000	-53.67543000000000	744.90143300000000	53.99506200000000	0.13986600000000	0.00000000000000	0.11133200000000	-4.63062200000000	151.45732100000001	10.91245400000000	0.41156600000000	0.00000000000000	-0.08142200000000	0.00000000000000	25.29704700000000	0.00000000000000	0.00000000000000	8.63271500000000	0.00000000000000	
22.83491500000000	-54.18509000000000	740.30345799999998	53.32642900000000	0.13930700000000	0.00000000000000	0.11117400000000	-3.68927900000000	158.39799400000001	10.66007500000000	0.41438500000000	0.00000000000000	-0.08156000000000	0.00000000000000	25.13671100000000	0.00000000000000	0.00000000000000	8.62272000000000	0.00000000000000	
22.83657600000000	-54.69985900000000	735.57038399999999	52.63352300000000	0.13877400000000	0.00000000000000	0.11101100000000	-2.71483900000000	165.51772399999999	10.38666200000000	0.41709500000000	0.00000000000000	-0.08169500000000	0.00000000000000	24.97519700000000	0.00000000000000	0.00000000000000	8.59921200000000	0.00000000000000	
22.83825000000000	-55.21903900000000	730.70147899999995	51.91689800000000	0.13826600000000	0.00000000000000	0.11084100000000	-1.70514100000000	172.80520799999999	10.08975000000000	0.41969800000000	0.00000000000000	-0.08182800000000	0.00000000000000	24.81247200000000	0.00000000000000	0.00000000000000	8.56037100000000	0.00000000000000	
22.83991700000000	-55.74185500000000	725.69604800000002	51.17715000000000	0.13778200000000	0.00000000000000	0.11066600000000	-0.65719200000000	180.24454800000001	9.76613300000000	0.42219900000000	0.00000000000000	-0.08195900000000	0.00000000000000	24.64849100000000	0.00000000000000	0.00000000000000	8.50386600000000	0.00000000000000	
22.84157900000000	-56.26745500000000	720.55344000000002	50.41491800000000	0.13732200000000	0.00000000000000	0.11048500000000	0.43231300000000	187.81689200000000	9.41226600000000	0.42459900000000	0.00000000000000	-0.08208900000000	0.00000000000000	24.48318900000000	0.00000000000000	0.00000000000000	8.42710300000000	0.00000000000000	
22.84324600000000	-56.79490800000000	715.27305300000000	49.63088000000000	0.13688600000000	0.00000000000000	0.11029800000000	1.56653700000000	195.50196199999999	9.02462000000000	0.42689900000000	0.00000000000000	-0.08221700000000	0.00000000000000	24.31649000000000	0.00000000000000	0.00000000000000	8.32745800000000	0.00000000000000	
22.84491300000000	-57.32320700000000	709.85434099999998	48.82575400000000	0.13647200000000	0.00000000000000	0.11010600000000	2.74814200000000	203.27937000000000	8.59996700000000	0.42910200000000	0.00000000000000	-0.08234500000000	0.00000000000000	24.14829900000000	0.00000000000000	0.00000000000000	8.20247200000000	0.00000000000000	
22.84657600000000	-57.85126800000000	704.29681800000003	48.00029800000000	0.13608100000000	0.00000000000000	0.10990900000000	3.97902700000000	211.12968699999999	8.13560500000000	0.43120900000000	0.00000000000000	-0.08247300000000	0.00000000000000	23.97851100000000	0.00000000000000	0.00000000000000	8.05000100000000	0.00000000000000	
22.84824900000000	-58.37792800000000	698.60006999999996	47.15530600000000	0.13571000000000	0.00000000000000	0.10970600000000	5.26016500000000	219.03521100000000	7.62949200000000	0.43322200000000	0.00000000000000	-0.08260000000000	0.00000000000000	23.80700400000000	0.00000000000000	0.00000000000000	7.86832000000000	0.00000000000000	
22.84991600000000	-58.90195400000000	692.76376000000005	46.29161000000000	0.13536100000000	0.00000000000000	0.10949800000000	6.59153900000000	226.98044999999999	7.08032300000000	0.43514200000000	0.00000000000000	-0.08272700000000	0.00000000000000	23.63364500000000	0.00000000000000	0.00000000000000	7.65618600000000	0.00000000000000	
